<svg xmlns="http://www.w3.org/2000/svg" viewBox="0 0 566.9291 307.5603"><rect width="566.9291" height="307.5603" fill="none"/><path d="M316.7061,199.8824c-6.4793-.9264-10.71-2.463-10.71-6.1824,0-3.8595,4.1007-6.515,10.1058-6.515,4.6216.064,8.7281,2.0838,10.717,5.0111l.3194.47,6.7028-3.82-.294-.474c-3.3331-5.3731-9.2907-8.521-17.6312-8.521-6.02,0-11.5,1.9211-14.6581,5.1392a11.6957,11.6957,0,0,0-3.3595,8.5793c0,4.6944,1.8537,8.0888,5.6671,10.3768,3.4849,2.0913,8.1924,2.7438,12.34,3.3173,7.7605,1.0417,11.2872,3.3347,11.2872,7.1625,0,6.502-8.5335,7.2228-11.083,7.2228-3.5066,0-9.3254-.5184-12.985-6.8131l-.3058-.526-6.9736,3.6553.2482.4629c3.9122,7.298,10.2519,10.6972,19.9516,10.6972,9.29,0,19.2417-3.86,19.31-14.6991C335.3546,203.758,326.3912,201.2433,316.7061,199.8824Z" fill="#565656"/><polygon points="374.709 201.426 350.863 201.426 350.863 181.717 342.485 181.717 342.485 228.091 350.863 228.091 350.863 209.287 374.709 209.287 374.709 228.091 383.022 228.091 383.022 181.717 374.709 181.717 374.709 201.426" fill="#565656"/><path d="M413.5234,180.8772a23.6556,23.6556,0,0,0-17.1523,6.868,26.1646,26.1646,0,0,0-.8605,33.9165c4.2555,4.84,10.44,7.3987,17.8836,7.3987,7.4715,0,13.6551-2.5273,17.8825-7.3087a24.9813,24.9813,0,0,0,5.8215-16.6536,25.3445,25.3445,0,0,0-5.8514-16.756C427.0118,183.4892,420.8839,180.908,413.5234,180.8772Zm-.1292,40.3871c-6.98,0-15.2-4.2025-15.3909-16.037,0-10.2506,5.9469-16.6185,15.51-16.6185,10.55.1848,15.2718,8.48,15.2718,16.6185C428.7851,212.98,424.7419,221.2643,413.3942,221.2643Z" fill="#565656"/><path d="M466.2426,181.6525c-3.458,0-7.557.0161-11.0635.0325-3.5048.0161-7.01.0323-10.4657.0323h-.57v46.3739h8.3777V214.1979H466.246c11.5611-.069,16.8017-8.5268,16.7783-16.356C483.0011,190.0446,477.74,181.6525,466.2426,181.6525Zm-13.7217,7.7963h13.7217c5.7519,0,8.3716,4.4035,8.3716,8.495a8.7819,8.7819,0,0,1-2.09,5.8313,8.0767,8.0767,0,0,1-6.2813,2.6267H452.5209Z" fill="#565656"/><rect x="83.9044" y="201.9348" width="188.6373" height="5.3217" fill="#209e35"/><path d="M458.0439,158.7022H443.4252V93.0194h-25.25V79.7385h64.85V93.0194H458.0439Z" fill="#209e35"/><path d="M222.3807,158.9382H207.4585v-32.842L176.5274,79.4691H194.764L214.87,112.2382l21.1911-32.7691h18.4365l-32.1165,46.2866Z" fill="#209e35"/><path d="M324.8074,100.9308c0,9.7344-4.6767,13.8466-10.34,16.7421,7.0759,2.7142,12.3623,8.4353,12.3623,19.3016,0,14.2619-11.5178,21.8457-29.5335,21.8457H259.8788V79.5871h38.2851C314.0644,79.5871,324.8074,88.48,324.8074,100.9308Zm-15.027,1.8848c0-6.1718-5.5316-9.7041-11.4723-9.7041H274.3122l-.0241,18.2143h24.4441C304.0443,111.3258,309.78,109.4957,309.78,102.8156Zm2.5543,32.4564c0-8.06-9.1617-11.5449-17.5965-11.0343H274.3736v20.5461h21.4041C306.2952,144.7838,312.3347,142.0246,312.3347,135.272Z" fill="#209e35"/><path d="M127.0179,135.5693l-3.2325-.0628L98.6607,101.0432v57.895H83.9044V79.4691h17.0534L125.7487,113.76l24.8987-34.2913h17.1614v79.4691h-15V100.8161Z" fill="#209e35"/><path d="M375.7973,72.9662c-28.5652,0-45.4551,20.751-45.4551,46.1493s15.8783,46.2571,45.4551,46.2571c29.4419,0,45.4552-20.8588,45.4552-46.2571S404.5637,72.9662,375.7973,72.9662Zm0,6.65c12.2858,0,22.037,5.0215,28.4666,13.0123l-2.0671,6.8772-10.15-3.0369-3.1655,10.5228a3.4437,3.4437,0,1,0,3.2724.9974l2.185-7.2636,6.873,2.0565-3.9536,13.1535-12.6349,5.8361-19.06-7.7019a3.442,3.442,0,1,0-.9715,3.2973l20.1217,8.1312,6.8517-3.1648,3.6168,6.8274-4.8157,16.0087,1.0075.3032,4.176,7.883a38.4309,38.4309,0,0,1-19.2707,5.0292l-5.1956-10.2592.2427-.7989-10.01-3.04,2.081-6.8529,14.5972,4.4328,2.8684,5.4149a3.4389,3.4389,0,1,0,2.9985-1.6478l-2.9965-5.6568.2263-.7452-19.9731-6.0653-1.5963,5.2564-13.37-4.06a3.4367,3.4367,0,0,0-5.63-1.908,50.9857,50.9857,0,0,1-1.6948-13.352C338.8269,97.2946,352.84,79.6159,375.7973,79.6159Zm-33.13,58.8648c.0378.0012.0747.0057.1128.0057a3.4236,3.4236,0,0,0,2.29-.8775l13.4588,4.0871-1.4788,4.87,11.12,3.3771,4.2179,8.3287C357.501,157.2456,347.6477,149.5594,342.6671,138.4807ZM398.42,151.4644l-4.0659-7.675,1.7763-5.9045,2.2875.6882a3.4432,3.4432,0,1,0,1.1339-3.2314l-2.4359-.7328,1.7474-5.8086-4.1872-7.904,2.31-1.0667,2.4527.7372,7.3349-24.4029a40.7207,40.7207,0,0,1,5.3166,13.6768l-.1511-.0509.0463-.154-3.2759-.9855L404.46,122.7752a3.4431,3.4431,0,1,0,3.2757.9863l3.3265-11.0581,1.5687.5286a48.6976,48.6976,0,0,1,.3521,5.87C412.9833,133.5867,407.4892,144.7927,398.42,151.4644Z" fill="#209e35"/></svg>